# Blender 4.5.3 LTS
# www.blender.org
mtllib U_Metal_Profile.mtl
o u_profile
v -1.000000 -0.050001 -0.050000
v -1.000000 -0.050001 -0.050000
v -1.000000 -0.050001 -0.050000
v -1.000000 0.039343 -0.038763
v -1.000000 0.039343 -0.038763
v -1.000000 0.039343 -0.038763
v 1.000000 0.039343 -0.038763
v 1.000000 0.039343 -0.038763
v 1.000000 0.039343 -0.038763
v -1.000000 0.049999 -0.050000
v -1.000000 0.049999 -0.050000
v -1.000000 0.049999 -0.050000
v 1.000000 -0.050001 -0.050000
v 1.000000 -0.050001 -0.050000
v 1.000000 -0.050001 -0.050000
v -1.000000 -0.039420 -0.038763
v -1.000000 -0.039420 -0.038763
v -1.000000 -0.039420 -0.038763
v 1.000000 -0.039420 -0.038763
v 1.000000 -0.039420 -0.038763
v 1.000000 -0.039420 -0.038763
v 1.000000 0.049999 -0.050000
v 1.000000 0.049999 -0.050000
v 1.000000 0.049999 -0.050000
v 1.000000 -0.050001 -0.015392
v 1.000000 -0.050001 -0.015392
v 1.000000 -0.050001 -0.015392
v 1.000000 -0.047783 -0.013175
v 1.000000 -0.047783 -0.013175
v 1.000000 -0.047783 -0.013175
v 1.000000 -0.049892 -0.014707
v 1.000000 -0.049892 -0.014707
v 1.000000 -0.049892 -0.014707
v 1.000000 -0.049577 -0.014089
v 1.000000 -0.049577 -0.014089
v 1.000000 -0.049577 -0.014089
v 1.000000 -0.049087 -0.013598
v 1.000000 -0.049087 -0.013598
v 1.000000 -0.049087 -0.013598
v 1.000000 -0.048469 -0.013283
v 1.000000 -0.048469 -0.013283
v 1.000000 -0.048469 -0.013283
v -1.000000 -0.047783 -0.013175
v -1.000000 -0.047783 -0.013175
v -1.000000 -0.047783 -0.013175
v -1.000000 -0.050001 -0.015392
v -1.000000 -0.050001 -0.015392
v -1.000000 -0.050001 -0.015392
v -1.000000 -0.048469 -0.013283
v -1.000000 -0.048469 -0.013283
v -1.000000 -0.048469 -0.013283
v -1.000000 -0.049087 -0.013598
v -1.000000 -0.049087 -0.013598
v -1.000000 -0.049087 -0.013598
v -1.000000 -0.049577 -0.014089
v -1.000000 -0.049577 -0.014089
v -1.000000 -0.049577 -0.014089
v -1.000000 -0.049892 -0.014707
v -1.000000 -0.049892 -0.014707
v -1.000000 -0.049892 -0.014707
v 1.000000 0.047782 -0.013175
v 1.000000 0.047782 -0.013175
v 1.000000 0.047782 -0.013175
v 1.000000 0.049999 -0.015392
v 1.000000 0.049999 -0.015392
v 1.000000 0.049999 -0.015392
v 1.000000 0.048467 -0.013283
v 1.000000 0.048467 -0.013283
v 1.000000 0.048467 -0.013283
v 1.000000 0.049085 -0.013598
v 1.000000 0.049085 -0.013598
v 1.000000 0.049085 -0.013598
v 1.000000 0.049576 -0.014089
v 1.000000 0.049576 -0.014089
v 1.000000 0.049576 -0.014089
v 1.000000 0.049891 -0.014707
v 1.000000 0.049891 -0.014707
v 1.000000 0.049891 -0.014707
v -1.000000 0.049999 -0.015392
v -1.000000 0.049999 -0.015392
v -1.000000 0.049999 -0.015392
v -1.000000 0.047782 -0.013175
v -1.000000 0.047782 -0.013175
v -1.000000 0.047782 -0.013175
v -1.000000 0.049891 -0.014707
v -1.000000 0.049891 -0.014707
v -1.000000 0.049891 -0.014707
v -1.000000 0.049576 -0.014089
v -1.000000 0.049576 -0.014089
v -1.000000 0.049576 -0.014089
v -1.000000 0.049085 -0.013598
v -1.000000 0.049085 -0.013598
v -1.000000 0.049085 -0.013598
v -1.000000 0.048467 -0.013283
v -1.000000 0.048467 -0.013283
v -1.000000 0.048467 -0.013283
v 1.000000 -0.041637 -0.013175
v 1.000000 -0.041637 -0.013175
v 1.000000 -0.041637 -0.013175
v 1.000000 -0.039420 -0.015392
v 1.000000 -0.039420 -0.015392
v 1.000000 -0.039420 -0.015392
v 1.000000 -0.040952 -0.013283
v 1.000000 -0.040952 -0.013283
v 1.000000 -0.040952 -0.013283
v 1.000000 -0.040334 -0.013598
v 1.000000 -0.040334 -0.013598
v 1.000000 -0.040334 -0.013598
v 1.000000 -0.039843 -0.014089
v 1.000000 -0.039843 -0.014089
v 1.000000 -0.039843 -0.014089
v 1.000000 -0.039528 -0.014707
v 1.000000 -0.039528 -0.014707
v 1.000000 -0.039528 -0.014707
v -1.000000 -0.039420 -0.015392
v -1.000000 -0.039420 -0.015392
v -1.000000 -0.039420 -0.015392
v -1.000000 -0.041637 -0.013175
v -1.000000 -0.041637 -0.013175
v -1.000000 -0.041637 -0.013175
v -1.000000 -0.039528 -0.014707
v -1.000000 -0.039528 -0.014707
v -1.000000 -0.039528 -0.014707
v -1.000000 -0.039843 -0.014089
v -1.000000 -0.039843 -0.014089
v -1.000000 -0.039843 -0.014089
v -1.000000 -0.040334 -0.013598
v -1.000000 -0.040334 -0.013598
v -1.000000 -0.040334 -0.013598
v -1.000000 -0.040952 -0.013283
v -1.000000 -0.040952 -0.013283
v -1.000000 -0.040952 -0.013283
v 1.000000 0.039343 -0.015392
v 1.000000 0.039343 -0.015392
v 1.000000 0.039343 -0.015392
v 1.000000 0.041560 -0.013175
v 1.000000 0.041560 -0.013175
v 1.000000 0.041560 -0.013175
v 1.000000 0.039451 -0.014707
v 1.000000 0.039451 -0.014707
v 1.000000 0.039451 -0.014707
v 1.000000 0.039766 -0.014089
v 1.000000 0.039766 -0.014089
v 1.000000 0.039766 -0.014089
v 1.000000 0.040257 -0.013598
v 1.000000 0.040257 -0.013598
v 1.000000 0.040257 -0.013598
v 1.000000 0.040875 -0.013283
v 1.000000 0.040875 -0.013283
v 1.000000 0.040875 -0.013283
v -1.000000 0.041560 -0.013175
v -1.000000 0.041560 -0.013175
v -1.000000 0.041560 -0.013175
v -1.000000 0.039343 -0.015392
v -1.000000 0.039343 -0.015392
v -1.000000 0.039343 -0.015392
v -1.000000 0.040875 -0.013283
v -1.000000 0.040875 -0.013283
v -1.000000 0.040875 -0.013283
v -1.000000 0.040257 -0.013598
v -1.000000 0.040257 -0.013598
v -1.000000 0.040257 -0.013598
v -1.000000 0.039766 -0.014089
v -1.000000 0.039766 -0.014089
v -1.000000 0.039766 -0.014089
v -1.000000 0.039451 -0.014707
v -1.000000 0.039451 -0.014707
v -1.000000 0.039451 -0.014707
vn -0.0000 -0.0000 1.0000
vn -0.0000 -0.0000 -1.0000
vn 1.0000 -0.0000 -0.0000
vn 1.0000 -0.0001 -0.0000
vn -0.0000 1.0000 -0.0000
vn -1.0000 -0.0000 -0.0000
vn -1.0000 0.0001 -0.0000
vn -0.0000 -1.0000 -0.0000
vn -0.0000 -0.9877 0.1564
vn -0.0000 -0.8910 0.4540
vn -0.0000 -0.7071 0.7071
vn -0.0000 -0.4540 0.8910
vn -0.0000 -0.1564 0.9877
vn -0.0000 0.1564 0.9877
vn -0.0000 0.4540 0.8910
vn -0.0000 0.7071 0.7071
vn -0.0000 0.8910 0.4540
vn -0.0000 0.9877 0.1564
vt 0.975204 0.000000
vt 0.975204 0.500000
vt 0.944471 0.500000
vt 0.944471 0.000000
vt 0.500000 0.500000
vt -0.000000 0.500000
vt 0.000000 0.000000
vt 0.500000 0.000000
vt 0.931438 0.500000
vt 0.900328 0.500000
vt 0.900328 0.000000
vt 0.931438 0.000000
vt 0.127943 0.553283
vt 0.011086 0.553283
vt 0.007660 0.552740
vt 0.004570 0.551166
vt 0.002117 0.548713
vt 0.000543 0.545623
vt -0.000000 0.542197
vt -0.000000 0.511086
vt 0.000543 0.507661
vt 0.002117 0.504570
vt 0.004570 0.502117
vt 0.007660 0.500543
vt 0.011086 0.500000
vt 0.184126 1.000000
vt 0.011086 1.000000
vt 0.007660 0.999457
vt 0.004570 0.997883
vt 0.002117 0.995430
vt 0.000543 0.992339
vt -0.000000 0.988914
vt -0.000000 0.958181
vt 0.000543 0.954755
vt 0.002117 0.951665
vt 0.004570 0.949212
vt 0.007660 0.947637
vt 0.011086 0.947095
vt 0.127943 0.947095
vt 0.184126 0.500000
vt 0.840563 1.000000
vt 0.726249 1.000000
vt 0.726249 0.500000
vt 0.840563 0.500000
vt 0.240310 0.947095
vt 0.357166 0.947095
vt 0.360592 0.947637
vt 0.363683 0.949212
vt 0.366135 0.951665
vt 0.367710 0.954755
vt 0.368253 0.958181
vt 0.368253 0.988914
vt 0.367710 0.992339
vt 0.366135 0.995430
vt 0.363683 0.997883
vt 0.360592 0.999457
vt 0.357166 1.000000
vt 0.184126 0.500000
vt 0.357166 0.500000
vt 0.360592 0.500543
vt 0.363683 0.502117
vt 0.366135 0.504570
vt 0.367710 0.507661
vt 0.368253 0.511086
vt 0.368253 0.542197
vt 0.367710 0.545623
vt 0.366135 0.548713
vt 0.363683 0.551166
vt 0.360592 0.552740
vt 0.357166 0.553283
vt 0.240310 0.553283
vt 0.184126 1.000000
vt 0.368253 1.000000
vt 0.368253 0.500000
vt 0.537529 0.500000
vt 0.537529 1.000000
vt 0.860007 0.500000
vt 0.974322 0.500000
vt 0.974322 1.000000
vt 0.860007 1.000000
vt 0.500000 0.500000
vt 0.500000 0.000000
vt 0.893812 0.000000
vt 0.893812 0.500000
vt 0.556973 0.500000
vt 0.556973 1.000000
vt 0.553509 1.000000
vt 0.553509 0.500000
vt 0.550159 1.000000
vt 0.550159 0.500000
vt 0.547251 1.000000
vt 0.547251 0.500000
vt 0.981720 0.000000
vt 0.981720 0.500000
vt 0.978629 0.500000
vt 0.978630 0.000000
vt 0.896902 0.500000
vt 0.896902 0.000000
vt 0.547251 0.500000
vt 0.544343 1.000000
vt 0.544343 0.500000
vt 0.540993 1.000000
vt 0.540993 0.500000
vt 0.941045 0.500000
vt 0.941045 0.000000
vt 0.937955 0.500000
vt 0.937955 0.000000
vt 0.850285 0.500000
vt 0.850285 1.000000
vt 0.847377 1.000000
vt 0.847377 0.500000
vt 0.844027 1.000000
vt 0.844027 0.500000
vt 0.856543 1.000000
vt 0.856543 0.500000
vt 0.853193 1.000000
vt 0.853193 0.500000
vt 0.850285 1.000000
vt 0.850285 0.500000
vt 0.937955 0.000000
vt 0.937955 0.500000
vt 0.934864 0.500000
vt 0.934864 0.000000
vt 0.726249 0.500000
s 0
g u_profile_Metal.001
usemtl Metal.001
f 30/1/1 120/3/1 45/2/1
f 30/1/1 99/4/1 120/3/1
f 15/5/2 12/7/2 24/6/2
f 15/5/2 3/8/2 12/7/2
f 153/9/1 63/11/1 84/10/1
f 153/9/1 138/12/1 63/11/1
f 7/13/3 139/15/3 133/14/3
f 139/15/3 145/17/3 142/16/3
f 145/17/3 136/19/3 148/18/3
f 136/19/3 67/21/3 61/20/3
f 67/21/3 73/23/3 70/22/3
f 73/23/3 64/25/3 76/24/3
f 13/26/3 31/28/3 25/27/3
f 31/28/3 37/30/3 34/29/3
f 37/30/3 28/32/3 40/31/3
f 28/32/3 103/34/3 97/33/3
f 103/34/3 109/36/3 106/35/3
f 109/36/3 100/38/3 112/37/3
f 109/36/3 19/39/3 100/38/3
f 28/32/3 109/36/3 103/34/3
f 31/28/3 28/32/3 37/30/3
f 73/23/3 22/40/3 64/25/3
f 136/19/3 73/23/3 67/21/3
f 139/15/3 136/19/3 145/17/3
f 7/13/4 136/19/4 139/15/4
f 136/19/3 22/40/3 73/23/3
f 13/26/3 28/32/3 31/28/3
f 28/32/3 19/39/3 109/36/3
f 7/13/3 22/40/3 136/19/3
f 13/26/3 19/39/3 28/32/3
f 19/39/3 22/40/3 7/13/3
f 22/40/3 19/39/3 13/26/3
f 116/41/5 20/43/5 17/42/5
f 116/41/5 101/44/5 20/43/5
f 16/45/6 121/47/6 115/46/6
f 121/47/6 127/49/6 124/48/6
f 127/49/6 118/51/6 130/50/6
f 118/51/6 49/53/6 43/52/6
f 49/53/6 55/55/6 52/54/6
f 55/55/6 46/57/6 58/56/6
f 10/58/6 85/60/6 79/59/6
f 85/60/6 91/62/6 88/61/6
f 91/62/6 82/64/6 94/63/6
f 82/64/6 157/66/6 151/65/6
f 157/66/6 163/68/6 160/67/6
f 163/68/6 154/70/6 166/69/6
f 163/68/6 4/71/6 154/70/6
f 82/64/6 163/68/6 157/66/6
f 85/60/6 82/64/6 91/62/6
f 55/55/6 1/72/6 46/57/6
f 118/51/6 55/55/6 49/53/6
f 121/47/6 118/51/6 127/49/6
f 16/45/7 118/51/7 121/47/7
f 118/51/6 1/72/6 55/55/6
f 10/58/6 82/64/6 85/60/6
f 82/64/6 4/71/6 163/68/6
f 16/45/6 1/72/6 118/51/6
f 10/58/6 4/71/6 82/64/6
f 4/71/6 1/72/6 16/45/6
f 1/72/6 4/71/6 10/58/6
f 11/73/5 65/75/5 23/74/5
f 11/73/5 80/76/5 65/75/5
f 134/77/8 5/79/8 8/78/8
f 134/77/8 155/80/8 5/79/8
f 6/81/1 21/83/1 9/82/1
f 6/81/1 18/84/1 21/83/1
f 27/85/9 59/87/9 48/86/9
f 27/85/9 32/88/9 59/87/9
f 33/88/10 56/89/10 60/87/10
f 33/88/10 35/90/10 56/89/10
f 36/90/11 53/91/11 57/89/11
f 36/90/11 38/92/11 53/91/11
f 39/93/12 50/95/12 54/94/12
f 39/93/12 41/96/12 50/95/12
f 42/96/13 44/2/13 51/95/13
f 42/96/13 29/1/13 44/2/13
f 62/11/14 96/97/14 83/10/14
f 62/11/14 69/98/14 96/97/14
f 68/98/15 93/84/15 95/97/15
f 68/98/15 72/83/15 93/84/15
f 71/99/16 90/100/16 92/91/16
f 71/99/16 75/101/16 90/100/16
f 74/101/17 87/102/17 89/100/17
f 74/101/17 78/103/17 87/102/17
f 77/103/18 81/76/18 86/102/18
f 77/103/18 66/75/18 81/76/18
f 98/4/14 132/104/14 119/3/14
f 98/4/14 105/105/14 132/104/14
f 104/105/15 129/106/15 131/104/15
f 104/105/15 108/107/15 129/106/15
f 107/108/16 126/110/16 128/109/16
f 107/108/16 111/111/16 126/110/16
f 110/111/17 123/112/17 125/110/17
f 110/111/17 114/113/17 123/112/17
f 113/113/18 117/41/18 122/112/18
f 113/113/18 102/44/18 117/41/18
f 135/77/9 167/114/9 156/80/9
f 135/77/9 140/115/9 167/114/9
f 141/115/10 164/116/10 168/114/10
f 141/115/10 143/117/10 164/116/10
f 144/117/11 161/118/11 165/116/11
f 144/117/11 146/119/11 161/118/11
f 147/120/12 158/122/12 162/121/12
f 147/120/12 149/123/12 158/122/12
f 150/123/13 152/9/13 159/122/13
f 150/123/13 137/12/13 152/9/13
f 14/124/8 47/86/8 2/42/8
f 14/124/8 26/85/8 47/86/8
